<svg id="Ebene_1" data-name="Ebene 1" xmlns="http://www.w3.org/2000/svg" viewBox="0 0 175.19 28.63"><defs><style>.cls-1{fill:#1d1d1b;}.cls-2{fill:none;stroke:#1d1d1b;stroke-miterlimit:10;stroke-width:0.25px;}</style></defs><title>Beverung_Logo Kopie</title><polygon class="cls-1" points="6.23 11.79 6.2 11.79 3.4 0.38 0 0.38 0 0.68 1.68 0.68 1.68 15.19 0 15.19 0 15.48 3.58 15.48 3.58 15.19 1.91 15.19 1.91 0.95 1.94 0.95 5.53 15.5 9.15 0.81 9.18 0.81 9.18 15.19 7.5 15.19 7.5 15.48 12.37 15.48 12.37 15.19 10.69 15.19 10.69 0.68 12.37 0.68 12.37 0.38 9.03 0.38 6.23 11.79"/><polygon class="cls-1" points="14.97 0.68 16.65 0.68 16.65 15.19 14.97 15.19 14.97 15.48 19.84 15.48 19.84 15.19 18.16 15.19 18.16 0.68 19.84 0.68 19.84 0.38 14.97 0.38 14.97 0.68"/><path class="cls-1" d="M295.9,160.26a.9.9,0,0,1-.41.11.66.66,0,0,1-.63-.45,4.1,4.1,0,0,1-.29-1,6.65,6.65,0,0,1-.08-.89c0-.36,0-.73-.05-1.11s0-.75-.06-1.11a5.42,5.42,0,0,0-.13-1,2.74,2.74,0,0,0-.51-1.17A3.16,3.16,0,0,0,293,153a3.1,3.1,0,0,0-.85-.4l-.66-.16v0a2.94,2.94,0,0,0,1.41-.58,3.29,3.29,0,0,0,.81-1,3.24,3.24,0,0,0,.36-1,4.74,4.74,0,0,0,.08-.82,4.58,4.58,0,0,0-.22-1.36,3.22,3.22,0,0,0-.74-1.29,2.44,2.44,0,0,0-1.27-.8,8.27,8.27,0,0,0-1.58-.13h-.72l-.36,0H286v.3h1.68v14.5H286v.3h4.87v-.3h-1.68v-7.65h1.51a3.63,3.63,0,0,1,.61,0,1.28,1.28,0,0,1,.67.33,2.12,2.12,0,0,1,.57.87,5.35,5.35,0,0,1,.3,1.65l.1,1.93a12,12,0,0,0,.16,1.41,3.2,3.2,0,0,0,.36,1,1.55,1.55,0,0,0,.64.63,2.16,2.16,0,0,0,1,.21,2.58,2.58,0,0,0,.53-.05,1.92,1.92,0,0,0,.37-.14,1.35,1.35,0,0,0,.25-.18l.18-.18-.14-.24A1,1,0,0,1,295.9,160.26Zm-5.35-7.95h-1.39v-6.55a2.84,2.84,0,0,1,.48-.06h.55a3.13,3.13,0,0,1,.79.11,1.6,1.6,0,0,1,.73.44,2.72,2.72,0,0,1,.53,1,6.53,6.53,0,0,1,.2,1.77,7.23,7.23,0,0,1-.14,1.61,2.81,2.81,0,0,1-.38,1,1.4,1.4,0,0,1-.6.52A1.92,1.92,0,0,1,290.55,152.31Z" transform="translate(-263.47 -145.08)"/><polygon class="cls-1" points="35.17 0.68 36.85 0.68 36.85 15.19 35.17 15.19 35.17 15.48 40.04 15.48 40.04 15.19 38.36 15.19 38.36 0.68 40.04 0.68 40.04 0.38 35.17 0.38 35.17 0.68"/><path class="cls-1" d="M311.48,145.08h-.37L307,160.26H305.7v.3H309v-.3h-1.68l1.59-5.89h3.51l1.59,5.89h-1.68v.3h4.65v-.3h-1.34Zm-2.53,9,1.66-6.17,1.67,6.17Z" transform="translate(-263.47 -145.08)"/><polygon class="cls-1" points="61.78 11.79 61.75 11.79 58.95 0.38 55.55 0.38 55.55 0.68 57.23 0.68 57.23 15.19 55.55 15.19 55.55 15.48 59.13 15.48 59.13 15.19 57.46 15.19 57.46 0.95 57.49 0.95 61.08 15.5 64.7 0.81 64.73 0.81 64.73 15.19 63.05 15.19 63.05 15.48 67.92 15.48 67.92 15.19 66.24 15.19 66.24 0.68 67.92 0.68 67.92 0.38 64.58 0.38 61.78 11.79"/><path class="cls-1" d="M347.45,153.51a3.29,3.29,0,0,0-1-.74,3.48,3.48,0,0,0-1.12-.33v-.05a2.77,2.77,0,0,0,1-.36,3,3,0,0,0,.85-.72,3.2,3.2,0,0,0,.59-1A3.57,3.57,0,0,0,348,149a5,5,0,0,0-.15-1.14,3.14,3.14,0,0,0-1.68-2.07,3.86,3.86,0,0,0-1.81-.37h-.91l-.48,0h-3.1v.3h1.67v14.5h-1.67v.3H343l.46,0,.44,0,.41,0a4.67,4.67,0,0,0,1.83-.33,3.43,3.43,0,0,0,1.3-.91,3.71,3.71,0,0,0,.77-1.36,5.73,5.73,0,0,0,.26-1.75,4.21,4.21,0,0,0-.29-1.61A3.62,3.62,0,0,0,347.45,153.51Zm-4.4-7.75a2.85,2.85,0,0,1,.47-.06h.55a3.15,3.15,0,0,1,.8.11,1.52,1.52,0,0,1,.72.44,2.46,2.46,0,0,1,.53,1,6.11,6.11,0,0,1,.21,1.77,7.88,7.88,0,0,1-.14,1.61,3,3,0,0,1-.38,1,1.4,1.4,0,0,1-.6.52,1.92,1.92,0,0,1-.77.15h-1.39Zm3.55,12.47a3.32,3.32,0,0,1-.48,1.26,1.7,1.7,0,0,1-.83.67,3.63,3.63,0,0,1-1.22.19,4.78,4.78,0,0,1-.62,0l-.4-.06v-7.65h1.66a1.65,1.65,0,0,1,1.53,1,5.82,5.82,0,0,1,.51,2.67A10.86,10.86,0,0,1,346.6,158.23Z" transform="translate(-263.47 -145.08)"/><path class="cls-1" d="M360.87,155.92h-.16a9,9,0,0,1-.22,1.23,6.26,6.26,0,0,1-.51,1.43,3.9,3.9,0,0,1-.9,1.18,2,2,0,0,1-1.38.5h-2.86v-7.65h1.22a1.39,1.39,0,0,1,.89.26,1.84,1.84,0,0,1,.54.71,4.21,4.21,0,0,1,.32,1c.08.38.15.78.22,1.19h.17v-6.6H358a13.8,13.8,0,0,1-.34,1.56,3.62,3.62,0,0,1-.42,1,1.28,1.28,0,0,1-.6.47,2.34,2.34,0,0,1-.85.13h-1v-6.55h2.51a2.44,2.44,0,0,1,1.06.21,2,2,0,0,1,.75.64,4.06,4.06,0,0,1,.55,1.06,13.91,13.91,0,0,1,.42,1.46h.17v-3.67h-8.65v.3h1.68v14.5h-1.68v.3h9.22Z" transform="translate(-263.47 -145.08)"/><polygon class="cls-1" points="107.91 0.68 109.56 0.68 106.25 12.98 102.89 0.68 104.57 0.68 104.57 0.38 99.9 0.38 99.9 0.68 101.26 0.68 105.37 15.8 105.75 15.8 109.81 0.68 111.18 0.68 111.18 0.38 107.91 0.38 107.91 0.68"/><path class="cls-1" d="M385.47,157.15a6.26,6.26,0,0,1-.51,1.43,3.9,3.9,0,0,1-.9,1.18,2,2,0,0,1-1.38.5h-2.86v-7.65H381a1.39,1.39,0,0,1,.89.26,1.94,1.94,0,0,1,.54.71,4.7,4.7,0,0,1,.32,1c.07.38.15.78.22,1.19h.16v-6.6H383c-.11.64-.23,1.16-.34,1.56a3.32,3.32,0,0,1-.43,1,1.21,1.21,0,0,1-.59.47,2.37,2.37,0,0,1-.85.13h-1v-6.55h2.51a2.47,2.47,0,0,1,1.06.21,2,2,0,0,1,.75.64,4.39,4.39,0,0,1,.55,1.06,13.91,13.91,0,0,1,.42,1.46h.17v-3.67h-8.65v.3h1.68v14.5h-1.68v.3h9.22v-4.64h-.17A10.56,10.56,0,0,1,385.47,157.15Z" transform="translate(-263.47 -145.08)"/><path class="cls-1" d="M398.91,160.26a.89.89,0,0,1-.4.11.66.66,0,0,1-.64-.45,4.1,4.1,0,0,1-.29-1,8.87,8.87,0,0,1-.08-.89c0-.36,0-.73,0-1.11s0-.75-.07-1.11a6.59,6.59,0,0,0-.12-1,2.75,2.75,0,0,0-.52-1.17A3,3,0,0,0,396,153a3.1,3.1,0,0,0-.85-.4c-.28-.07-.49-.13-.66-.16v0a2.94,2.94,0,0,0,1.41-.58,3.29,3.29,0,0,0,.81-1,3,3,0,0,0,.36-1,4.1,4.1,0,0,0-.13-2.18,3.37,3.37,0,0,0-.75-1.29,2.44,2.44,0,0,0-1.27-.8,8.27,8.27,0,0,0-1.58-.13h-.72l-.36,0H389v.3h1.68v14.5H389v.3h4.87v-.3h-1.68v-7.65h1.51a3.56,3.56,0,0,1,.61,0,1.28,1.28,0,0,1,.67.33,2.12,2.12,0,0,1,.57.87,5.35,5.35,0,0,1,.3,1.65l.11,1.93a12.23,12.23,0,0,0,.15,1.41,3.2,3.2,0,0,0,.36,1,1.61,1.61,0,0,0,.64.63,2.16,2.16,0,0,0,1,.21,2.58,2.58,0,0,0,.53-.05,1.92,1.92,0,0,0,.37-.14,1.08,1.08,0,0,0,.25-.18l.18-.18-.14-.24A.94.94,0,0,1,398.91,160.26Zm-5.35-7.95h-1.39v-6.55a2.84,2.84,0,0,1,.48-.06h.55a3.07,3.07,0,0,1,.79.11,1.6,1.6,0,0,1,.73.44,2.58,2.58,0,0,1,.53,1,6.53,6.53,0,0,1,.2,1.77,8,8,0,0,1-.13,1.61,2.8,2.8,0,0,1-.39,1,1.4,1.4,0,0,1-.6.52A1.92,1.92,0,0,1,393.56,152.31Z" transform="translate(-263.47 -145.08)"/><path class="cls-1" d="M408.73,145.76h1.68v9.86c0,.51,0,.94-.05,1.28a6.08,6.08,0,0,1-.13.89,3.13,3.13,0,0,1-.2.65,4.55,4.55,0,0,1-.26.55,2.8,2.8,0,0,1-1.12,1.24,3.12,3.12,0,0,1-1.49.35,2.45,2.45,0,0,1-1.08-.23,2,2,0,0,1-.79-.78,4.22,4.22,0,0,1-.47-1.42,11.87,11.87,0,0,1-.16-2.15V145.76h1.68v-.3h-4.87v.3h1.68v10a6.31,6.31,0,0,0,1,3.84,3.29,3.29,0,0,0,2.77,1.25,3.5,3.5,0,0,0,1.92-.47,3.21,3.21,0,0,0,1.14-1.23,5.28,5.28,0,0,0,.56-1.51,9.05,9.05,0,0,0,.13-1.63V145.76h1.68v-.3h-3.58Z" transform="translate(-263.47 -145.08)"/><polygon class="cls-1" points="157.88 0.68 159.56 0.68 159.56 11.94 159.53 11.94 154.42 0.38 151.18 0.38 151.18 0.68 152.86 0.68 152.86 15.19 151.18 15.19 151.18 15.48 154.77 15.48 154.77 15.19 153.09 15.19 153.09 1.55 153.12 1.55 159.48 15.78 159.79 15.78 159.79 0.68 161.46 0.68 161.46 0.38 157.88 0.38 157.88 0.68"/><path class="cls-1" d="M434.05,154.85v.3H436v1.78a5.25,5.25,0,0,1-.23,1.63,3.56,3.56,0,0,1-.61,1.13,2.33,2.33,0,0,1-.84.67,2.11,2.11,0,0,1-.93.22,3,3,0,0,1-1.26-.22,2.81,2.81,0,0,1-.94-.8,4.23,4.23,0,0,1-.66-1.23,8.78,8.78,0,0,1-.4-1.57,15.89,15.89,0,0,1-.21-1.8c0-.64-.06-1.27-.06-1.91,0-.93.05-1.86.13-2.78a10.35,10.35,0,0,1,.52-2.47,4.4,4.4,0,0,1,1.07-1.76,2.83,2.83,0,0,1,3.39-.2,3.51,3.51,0,0,1,1,1.15,5.2,5.2,0,0,1,.54,1.42,10.07,10.07,0,0,1,.24,1.29h.16v-4.24h-.22a1.57,1.57,0,0,1-.25.33.63.63,0,0,1-.43.11,1,1,0,0,1-.49-.12l-.5-.29a3.49,3.49,0,0,0-.64-.29,3.07,3.07,0,0,0-.94-.12,3.46,3.46,0,0,0-2,.59,6.37,6.37,0,0,0-1.56,1.55c-.13.18-.29.44-.49.76a8.14,8.14,0,0,0-.57,1.21,9.86,9.86,0,0,0-.48,1.69,11,11,0,0,0-.19,2.17,10,10,0,0,0,.49,3.25,10.26,10.26,0,0,0,1.26,2.5,5.54,5.54,0,0,0,1.6,1.58,3.68,3.68,0,0,0,1.91.5,3.37,3.37,0,0,0,1.21-.2,5.05,5.05,0,0,0,.87-.46l.65-.46a1,1,0,0,1,.55-.2.5.5,0,0,1,.33.09,1.4,1.4,0,0,1,.27.32h.18v-4.82h1.21v-.3Z" transform="translate(-263.47 -145.08)"/><path class="cls-1" d="M309.82,170.84c-.17.67-.32,1.27-.43,1.86h0a18.32,18.32,0,0,0-.38-1.84l-.65-2.74h-.73l-.72,2.72c-.18.69-.35,1.33-.44,1.87h0c-.1-.52-.24-1.19-.4-1.86l-.64-2.73h-.74l1.37,5.39h.73l.76-2.81a17.4,17.4,0,0,0,.42-1.76h0a17.26,17.26,0,0,0,.36,1.76l.68,2.81h.72l1.53-5.39h-.71Z" transform="translate(-263.47 -145.08)"/><polygon class="cls-1" points="50.5 25.91 52.6 25.91 52.6 25.33 50.5 25.33 50.5 23.63 52.72 23.63 52.72 23.04 49.81 23.04 49.81 28.43 52.84 28.43 52.84 27.85 50.5 27.85 50.5 25.91"/><path class="cls-1" d="M320.05,168.08a10.66,10.66,0,0,0-1.48.11v5.3a11.11,11.11,0,0,0,1.27.07,3.31,3.31,0,0,0,2.38-.78,2.84,2.84,0,0,0,.77-2.09,2.5,2.5,0,0,0-.76-1.94A3.07,3.07,0,0,0,320.05,168.08ZM320,173a4.55,4.55,0,0,1-.7,0V168.7a3.89,3.89,0,0,1,.81-.07,1.93,1.93,0,0,1,2.19,2.08A2.07,2.07,0,0,1,320,173Z" transform="translate(-263.47 -145.08)"/><path class="cls-1" d="M326.74,168.08a10.54,10.54,0,0,0-1.48.11v5.3a11.06,11.06,0,0,0,1.26.07,3.32,3.32,0,0,0,2.39-.78,2.84,2.84,0,0,0,.77-2.09,2.5,2.5,0,0,0-.76-1.94A3.07,3.07,0,0,0,326.74,168.08Zm-.08,4.92a4.55,4.55,0,0,1-.7,0V168.7a3.89,3.89,0,0,1,.81-.07,1.92,1.92,0,0,1,2.18,2.08A2.07,2.07,0,0,1,326.66,173Z" transform="translate(-263.47 -145.08)"/><rect class="cls-1" x="68.48" y="23.04" width="0.7" height="5.39"/><path class="cls-1" d="M338.61,170.38c0,.83,0,1.49.08,2.21h0a14.25,14.25,0,0,0-1-1.75L336,168.12h-.76v5.39h.66v-2.3c0-.9,0-1.55-.06-2.23h0c.28.58.64,1.2,1,1.8l1.71,2.73h.71v-5.39h-.66Z" transform="translate(-263.47 -145.08)"/><path class="cls-1" d="M344.17,171.24h1.1v1.61a2.32,2.32,0,0,1-.93.14,2,2,0,0,1-2.08-2.17,2,2,0,0,1,2.17-2.17,2.78,2.78,0,0,1,1.19.23l.17-.57a3.4,3.4,0,0,0-1.35-.25,2.76,2.76,0,1,0-.15,5.51,5.12,5.12,0,0,0,1.66-.3v-2.59h-1.78Z" transform="translate(-263.47 -145.08)"/><path class="cls-1" d="M352.76,168.08a8.71,8.71,0,0,0-1.33.1v5.33h.69v-2.16a2.43,2.43,0,0,0,.56.05,2.25,2.25,0,0,0,1.65-.59,1.61,1.61,0,0,0,.42-1.15,1.44,1.44,0,0,0-.48-1.13A2.2,2.2,0,0,0,352.76,168.08Zm-.06,2.76a2.35,2.35,0,0,1-.58-.06v-2.09a3.05,3.05,0,0,1,.66-.06c.77,0,1.27.35,1.27,1.06S353.54,170.84,352.7,170.84Z" transform="translate(-263.47 -145.08)"/><path class="cls-1" d="M359.23,168a2.57,2.57,0,0,0-2.51,2.83,2.48,2.48,0,0,0,2.43,2.74,2.53,2.53,0,0,0,2.5-2.84A2.45,2.45,0,0,0,359.23,168Zm0,5c-1.1,0-1.72-1-1.72-2.18s.57-2.25,1.72-2.25,1.72,1.12,1.72,2.19C360.91,172,360.29,173,359.19,173Z" transform="translate(-263.47 -145.08)"/><path class="cls-1" d="M366.22,170.94v0a1.4,1.4,0,0,0,1-1.38,1.35,1.35,0,0,0-.42-1,2.24,2.24,0,0,0-1.56-.44,7.36,7.36,0,0,0-1.33.11v5.32h.69v-2.34h.66c.63,0,.92.31,1.08,1.05a6.7,6.7,0,0,0,.36,1.29h.72A8.21,8.21,0,0,1,367,172,1.37,1.37,0,0,0,366.22,170.94Zm-.9-.29h-.71v-2a3,3,0,0,1,.69-.06c.73,0,1.24.31,1.24,1S366.07,170.65,365.32,170.65Z" transform="translate(-263.47 -145.08)"/><polygon class="cls-1" points="105.56 23.64 107.2 23.64 107.2 28.43 107.91 28.43 107.91 23.64 109.56 23.64 109.56 23.04 105.56 23.04 105.56 23.64"/><path class="cls-1" d="M377.29,170.94v0a1.41,1.41,0,0,0,1-1.38,1.35,1.35,0,0,0-.43-1,2.2,2.2,0,0,0-1.56-.44,7.36,7.36,0,0,0-1.33.11v5.32h.69v-2.34h.66c.63,0,.92.31,1.08,1.05a6.7,6.7,0,0,0,.36,1.29h.72a9.19,9.19,0,0,1-.42-1.48A1.35,1.35,0,0,0,377.29,170.94Zm-.9-.29h-.71v-2a3.1,3.1,0,0,1,.69-.06c.74,0,1.24.31,1.24,1S377.14,170.65,376.39,170.65Z" transform="translate(-263.47 -145.08)"/><path class="cls-1" d="M382.11,168.12l-1.83,5.39H381l.56-1.7h1.91l.58,1.7h.74L383,168.12Zm-.4,3.15.52-1.56c.11-.33.2-.65.28-1h0c.08.31.16.63.28,1l.53,1.55Z" transform="translate(-263.47 -145.08)"/><rect class="cls-1" x="123.48" y="23.04" width="0.7" height="5.39"/><polygon class="cls-1" points="126.13 23.64 127.77 23.64 127.77 28.43 128.48 28.43 128.48 23.64 130.12 23.64 130.12 23.04 126.13 23.04 126.13 23.64"/><line class="cls-2" x1="85.02" y1="28.63" x2="85.02" y2="22.85"/></svg>